<svg version="1.1" id="Layer_1" xmlns="http://www.w3.org/2000/svg" xmlns:xlink="http://www.w3.org/1999/xlink" x="0px" y="0px"
	 width="100%" viewBox="0 0 512 512" enable-background="new 0 0 512 512" xml:space="preserve">
<path fill="#010101" opacity="1.000000" stroke="none" 
	d="
M302.000000,513.000000 
	C202.690781,513.000000 103.881531,512.980835 5.072423,513.084473 
	C1.807701,513.087891 0.894267,512.646667 0.896788,509.074219 
	C1.015292,341.115265 1.016687,173.156235 0.892496,5.197323 
	C0.889724,1.449508 1.835981,0.912667 5.300733,0.914682 
	C173.093079,1.012274 340.885468,1.011378 508.677826,0.919594 
	C512.084534,0.917731 513.114746,1.368712 513.111816,5.175861 
	C512.982422,173.134781 512.985291,341.093811 513.100830,509.052765 
	C513.103271,512.581360 512.260071,513.094238 508.948975,513.088562 
	C440.132812,512.971069 371.316376,513.000000 302.000000,513.000000 
z"/>
<path fill="#FDDCE2" opacity="1.000000" stroke="none" 
	d="
M317.797028,283.816345 
	C331.791321,293.168549 344.496277,303.893677 356.631439,315.336456 
	C358.998077,317.568054 358.322906,319.041260 356.909760,321.175079 
	C347.695099,335.088562 336.479034,347.012146 322.445862,356.166473 
	C320.336761,357.542297 318.214630,358.882629 317.399750,361.464905 
	C316.380524,364.694672 317.273987,367.453125 319.834778,369.518280 
	C322.594696,371.744080 325.683838,371.766418 328.681854,369.963989 
	C334.953400,366.193451 340.656128,361.635895 346.791809,356.327332 
	C347.559723,365.245514 346.601990,373.326752 344.484192,381.318634 
	C344.186279,382.442841 343.759796,383.533569 343.475403,384.660645 
	C342.354370,389.103699 344.289673,392.880219 348.339020,394.218567 
	C352.330536,395.537750 356.174530,393.598755 357.768677,389.146454 
	C360.253479,382.206421 361.440887,374.955048 361.854828,367.637756 
	C362.306335,359.657013 362.449341,351.644287 361.385223,343.679382 
	C361.180817,342.149414 361.121460,340.784393 362.173187,339.444641 
	C364.524353,336.449585 366.747650,333.354187 369.279694,329.955109 
	C379.850525,343.438141 388.200134,357.869293 394.947815,373.222137 
	C398.018616,380.209137 400.465424,387.468109 403.370636,394.531586 
	C404.225311,396.609711 403.855743,397.825897 402.166595,399.210144 
	C399.208130,401.634521 396.323120,404.182037 393.666504,406.928650 
	C392.058838,408.590790 390.411194,408.866272 388.299774,408.599182 
	C382.503723,407.865875 376.835815,406.774384 371.396973,404.485321 
	C366.346893,402.359924 362.188965,403.820068 360.449890,407.944580 
	C358.674683,412.154938 360.500427,416.055634 365.592285,418.169067 
	C369.108826,419.628601 372.722870,421.186249 376.437439,421.748993 
	C380.804596,422.410583 380.145660,423.898376 378.455719,426.783508 
	C376.788116,429.630646 375.485474,432.740753 374.395935,435.865601 
	C372.830963,440.353912 374.566956,444.425293 378.325928,445.902283 
	C382.399750,447.502960 386.539673,445.736633 388.338104,441.070679 
	C392.576721,430.073700 399.759064,421.360779 408.878357,413.134186 
	C409.753235,416.806458 410.428223,419.847809 411.205170,422.862885 
	C413.916260,433.383911 424.247375,440.477905 434.032410,438.573547 
	C444.743164,436.488983 451.873932,426.442902 450.499023,415.263611 
	C449.645416,408.323303 448.802277,401.376801 447.684906,394.476715 
	C447.335510,392.319000 447.310730,391.179962 449.781250,390.548859 
	C459.342896,388.106384 468.904846,386.016327 478.859894,387.774170 
	C480.169067,388.005341 481.506409,388.127960 482.835693,388.184845 
	C487.196930,388.371552 489.936279,386.068604 490.629364,382.003235 
	C491.335327,377.862457 489.238159,374.891266 485.146240,373.719574 
	C481.128235,372.569000 476.964294,372.140228 472.795959,372.168884 
	C470.322693,372.185852 469.526703,371.742645 470.560883,369.084381 
	C472.190887,364.894562 473.028412,360.451233 473.527222,355.976807 
	C474.029419,351.471985 471.426514,347.842163 467.324219,347.136169 
	C463.319977,346.447052 459.653778,349.089508 458.862762,353.675293 
	C457.752686,360.110901 455.950409,366.264496 453.136932,372.181549 
	C451.418213,375.796265 448.042999,375.446442 445.130524,376.125458 
	C443.543732,376.495453 443.573578,374.631165 443.358124,373.678650 
	C439.857422,358.203156 434.192871,343.485535 427.675354,329.084381 
	C426.447662,326.371582 427.087311,324.878967 429.264496,323.237915 
	C431.650513,321.439453 434.263550,319.637756 435.928894,317.246429 
	C440.331421,310.924683 446.283844,311.089722 452.725677,312.359436 
	C457.955719,313.390289 463.055664,314.783630 467.989014,316.876129 
	C472.834229,318.931274 477.304749,317.319458 478.897552,313.276215 
	C480.553955,309.071503 478.593567,305.225189 473.614807,303.018555 
	C468.273132,300.651062 462.733521,298.807220 456.948700,298.046051 
	C453.439789,297.584412 453.707428,296.383179 455.266296,293.984406 
	C458.172852,289.511749 460.464966,284.709686 462.089142,279.617615 
	C463.592010,274.905670 461.831970,270.991394 457.628693,269.502594 
	C453.725067,268.119934 449.787079,269.945557 448.131714,274.459351 
	C442.486298,289.852997 431.747406,301.276245 419.750366,311.743011 
	C418.240967,311.148407 417.890472,309.768890 417.244751,308.701294 
	C408.474274,294.199829 397.964844,281.142975 385.028137,270.146576 
	C382.898163,268.336060 382.643616,267.326996 384.664368,265.150055 
	C389.645691,259.783752 394.380463,254.178452 399.015533,248.506775 
	C400.520203,246.665588 402.281403,245.817368 404.448212,245.416580 
	C416.358734,243.213577 428.200378,242.400177 439.956818,246.469681 
	C444.996826,248.214294 448.991699,246.225616 450.368958,241.748840 
	C451.644958,237.601257 449.565552,234.034332 444.604340,232.232117 
	C434.558716,228.582901 424.137054,228.126846 413.095306,229.011536 
	C415.956909,223.376572 418.673950,218.135315 421.291473,212.844833 
	C424.764404,205.825470 427.417175,198.483643 429.506409,190.946472 
	C430.922729,185.836929 428.878326,181.891083 424.402863,180.728760 
	C420.150055,179.624252 416.541260,181.825928 415.106232,186.789459 
	C412.283661,196.552521 408.493652,205.881500 403.027740,215.566345 
	C401.923950,209.562012 401.052216,204.399536 400.002777,199.273438 
	C399.403717,196.347321 398.664154,193.430984 397.723328,190.598114 
	C396.161896,185.896667 392.246277,183.768417 388.014740,185.091614 
	C384.171417,186.293396 382.010406,190.355209 383.349609,194.807083 
	C385.323486,201.368896 386.662476,208.031525 387.470825,214.816788 
	C387.707092,216.799805 387.544128,218.891891 388.119293,220.763382 
	C393.212036,237.334381 381.813751,246.495804 372.275269,256.558075 
	C370.326935,258.613434 369.465240,256.793274 368.348358,255.818619 
	C356.033752,245.072449 344.659424,233.351089 332.996887,221.490005 
	C332.234650,219.238297 333.109283,217.626495 333.969604,215.987976 
	C345.054260,194.877075 350.374207,172.204193 352.420532,148.599976 
	C353.687866,133.981277 353.665131,119.400917 352.462677,104.778542 
	C351.446198,92.417435 355.267395,81.489548 363.276642,72.026016 
	C365.134338,69.830978 367.174225,67.911560 370.572754,67.296410 
	C377.882812,67.751518 383.522888,71.111816 388.713409,75.439308 
	C400.801300,85.517372 411.411530,97.002190 420.835785,109.570343 
	C423.761841,113.472504 426.989349,115.602585 431.870514,113.554764 
	C432.860352,113.139496 433.350983,112.857117 434.112000,114.169090 
	C435.485870,116.537598 437.464203,118.547073 438.968658,120.851105 
	C440.057098,122.518051 440.580627,124.123077 438.693237,126.057724 
	C436.063416,128.753448 436.273041,132.117691 438.130768,135.286407 
	C467.572235,185.505402 481.474579,240.683823 490.216888,297.566315 
	C495.030334,328.885498 498.791901,360.269104 497.874695,392.021545 
	C497.398010,408.523804 495.419495,424.817963 490.383148,440.687531 
	C480.608154,471.488770 459.095459,487.547424 427.613037,490.993835 
	C402.358795,493.758453 377.059143,493.034088 351.355408,490.904266 
	C340.846466,488.726715 334.591949,481.514099 328.941528,473.836761 
	C320.760162,462.720520 317.009705,449.720490 314.510559,436.380798 
	C311.624390,420.975006 310.419861,405.419067 310.115265,389.714813 
	C309.811890,374.073608 310.148285,358.445770 310.409454,342.829224 
	C310.701477,325.366394 312.357727,307.942291 315.393707,290.698395 
	C315.794708,288.420776 316.030457,286.056702 317.797028,283.816345 
z"/>
<path fill="#63D0E0" opacity="1.000000" stroke="none" 
	d="
M280.128143,47.000092 
	C280.128204,85.330452 280.233826,123.161293 280.070862,160.990967 
	C280.014130,174.164627 283.859253,185.696106 291.718353,196.288208 
	C312.505219,224.303619 336.640137,249.144165 363.793915,270.850830 
	C403.013519,302.202911 422.820251,344.078003 431.958649,392.107239 
	C433.357056,399.456940 434.086517,406.931885 435.239807,414.331055 
	C435.854614,418.275421 436.655670,422.735291 431.482117,423.595673 
	C426.111420,424.488831 425.939636,419.521515 425.040741,415.899078 
	C417.238922,384.458710 404.680786,355.068848 386.556152,328.201141 
	C370.650787,304.623230 348.904266,286.986237 326.243774,270.391571 
	C315.899750,262.816498 305.364288,255.502808 295.020905,247.926865 
	C288.388458,243.069016 282.864380,237.177902 278.408264,230.159927 
	C268.222168,214.117783 245.639038,214.115402 235.501862,230.203049 
	C230.037933,238.874252 222.700943,245.461075 214.472092,251.245941 
	C197.983582,262.837280 181.820633,274.842468 166.026459,287.384216 
	C131.759903,314.594421 109.822525,349.988068 95.974983,390.938354 
	C92.881805,400.085541 90.338860,409.383148 88.207550,418.792145 
	C87.484543,421.983978 85.834518,424.202484 82.463669,423.683685 
	C79.149063,423.173553 77.887413,420.522614 78.242119,417.328613 
	C81.945900,383.977142 89.903923,351.863220 106.215729,322.224213 
	C115.965599,304.508392 128.747818,289.395355 144.386810,276.485718 
	C173.386337,252.547287 199.955154,226.202148 222.477448,195.925766 
	C230.246170,185.482376 233.912216,174.018417 233.874725,161.045944 
	C233.748505,117.383057 233.824295,73.719574 233.829956,30.056316 
	C233.830978,22.218031 235.024261,21.007866 242.697250,21.001888 
	C252.696472,20.994099 262.695862,20.966330 272.694855,21.013489 
	C278.366486,21.040236 280.069427,22.779776 280.115448,28.501148 
	C280.163635,34.500446 280.127441,40.500427 280.128143,47.000092 
z"/>
<path fill="#FDDCE2" opacity="1.000000" stroke="none" 
	d="
M38.680897,387.675079 
	C47.596607,386.475525 55.832169,388.458496 64.079292,390.526215 
	C66.450989,391.120880 66.640274,392.183258 66.272545,394.413818 
	C65.135918,401.308167 64.355034,408.260925 63.420448,415.188904 
	C61.914093,426.355377 68.853622,436.301178 79.711945,438.519562 
	C89.442162,440.507477 99.539413,433.905487 102.492897,423.546539 
	C103.398964,420.368591 104.098717,417.131775 105.082222,413.157013 
	C113.754623,420.958710 120.758904,429.157593 124.915039,439.528717 
	C125.860428,441.887848 126.754173,444.251434 129.144989,445.467743 
	C131.856537,446.847260 134.625183,446.828949 137.161758,444.987640 
	C140.112106,442.845917 140.854309,439.748230 139.754990,436.536560 
	C138.524963,432.943115 136.882843,429.453979 135.070679,426.108704 
	C133.740494,423.653168 133.360001,422.424713 136.828506,421.912506 
	C140.930664,421.306732 144.869461,419.875244 148.649246,418.101227 
	C153.331009,415.903870 155.185226,412.165375 153.587250,408.125336 
	C151.996399,404.103302 147.872574,402.522675 143.174377,404.175385 
	C140.981537,404.946777 138.855804,405.931793 136.630539,406.584290 
	C124.537109,410.130127 118.564598,408.135406 110.804153,398.338287 
	C109.726837,396.978210 110.095764,395.983734 110.530128,394.712036 
	C118.480743,371.436005 129.371902,349.715698 144.632141,329.914764 
	C147.152328,333.297424 149.475418,336.523376 151.921463,339.653198 
	C153.141022,341.213715 152.511887,342.787292 152.397461,344.421661 
	C151.440659,358.089905 151.266617,371.715363 154.960556,385.091644 
	C155.358170,386.531464 155.707687,387.998871 156.268219,389.376709 
	C158.013077,393.665833 161.907349,395.564880 165.876205,394.158813 
	C169.893326,392.735687 171.771683,389.007599 170.359573,384.487518 
	C167.800140,376.294861 166.733536,367.927856 166.889679,359.379883 
	C166.903442,358.625854 166.539368,357.723694 167.722092,356.899261 
	C172.851807,361.142273 178.042450,365.469971 183.779953,369.050964 
	C188.696014,372.119263 193.099380,371.716309 195.672195,367.905548 
	C198.297623,364.016876 197.052109,359.838745 192.098068,356.607025 
	C177.783234,347.268860 166.247971,335.223694 156.908691,320.968384 
	C155.578979,318.938751 154.982529,317.618958 157.115250,315.553619 
	C175.114990,298.122467 195.172379,283.310150 215.985153,268.525604 
	C218.455399,278.335510 219.753845,287.858704 220.878189,297.380066 
	C224.282913,326.212738 225.346268,355.175873 224.903015,384.185211 
	C224.597519,404.179291 223.542999,424.139740 218.342026,443.599274 
	C210.204773,474.044922 195.686829,487.254089 164.591278,490.676392 
	C138.728897,493.522766 112.725151,493.694946 86.353851,490.912109 
	C85.448349,490.489929 84.860191,490.502106 84.047516,490.303864 
	C83.766205,490.279968 83.845673,490.209412 83.850494,490.262329 
	C63.991047,482.551270 53.551666,466.329681 46.472603,447.576263 
	C39.897167,430.157043 37.367420,411.879913 37.406990,393.265472 
	C37.410862,391.443878 37.347004,389.588654 38.680897,387.675079 
z"/>
<path fill="#FEDCE2" opacity="1.000000" stroke="none" 
	d="
M152.708679,67.299576 
	C170.139496,68.988251 183.195251,84.410866 182.190231,102.302345 
	C181.339188,117.452576 180.530167,132.524323 182.816208,147.643509 
	C185.376602,164.577271 190.290024,180.683136 198.696991,195.615875 
	C200.368134,198.584183 200.096481,200.332794 197.926590,202.923538 
	C182.164413,221.742783 164.617538,238.784012 146.580826,255.367523 
	C144.167023,257.586853 142.864197,257.849152 140.342697,255.240784 
	C123.638863,237.961578 122.470749,234.151123 127.415146,208.034225 
	C128.186996,203.957260 129.198822,199.919418 130.252899,195.903702 
	C131.717926,190.322281 130.003860,186.170547 125.598495,185.023987 
	C120.988693,183.824249 117.683006,186.189758 115.874611,191.874908 
	C113.952568,197.917313 112.765572,204.108597 111.930626,210.379776 
	C111.736519,211.837677 111.909637,213.401306 110.593033,214.916763 
	C105.464180,206.020325 101.725555,196.729065 98.912895,187.020233 
	C97.452332,181.978622 94.015862,179.703461 89.775261,180.661362 
	C85.074020,181.723282 83.006310,185.750320 84.506371,191.179001 
	C87.753456,202.930176 92.637856,213.995422 98.664017,224.572937 
	C99.382156,225.833450 100.080246,227.105392 101.080086,228.895706 
	C91.378578,228.440308 82.288857,228.342484 73.450912,230.966782 
	C71.704681,231.485275 69.940910,232.000229 68.275391,232.724213 
	C64.072395,234.551208 62.329578,238.079849 63.604679,241.901413 
	C64.955513,245.949951 68.876106,248.276749 73.180672,246.728622 
	C84.392143,242.696457 95.717072,243.222458 107.183647,244.966797 
	C110.955215,245.540543 113.820793,246.950745 116.266853,250.172104 
	C120.384903,255.595413 125.082397,260.588409 129.675629,265.635468 
	C131.088333,267.187775 131.347839,268.074127 129.561996,269.550903 
	C122.481979,275.405518 116.187889,282.053528 110.379593,289.165680 
	C104.583221,296.263275 99.525215,303.876434 94.614891,312.046082 
	C82.580353,301.772888 72.166595,290.590973 66.310951,275.800354 
	C64.097664,270.209900 60.524559,267.980194 56.260849,269.517639 
	C51.680096,271.169403 50.178310,275.425018 52.299564,281.085663 
	C54.051228,285.760040 56.176281,290.275055 58.934563,294.444397 
	C60.305542,296.516785 60.346931,297.504211 57.500813,297.982727 
	C53.911736,298.586182 50.402344,299.663574 46.448441,300.604858 
	C44.276173,299.089355 44.604401,297.059387 44.914116,295.081512 
	C51.712769,251.664185 61.307552,208.992599 78.918335,168.483002 
	C90.874794,140.979874 105.771431,115.242401 125.337593,92.392616 
	C131.841995,84.796638 139.217087,78.013145 146.420197,71.083389 
	C148.121368,69.446754 150.159210,68.311432 152.708679,67.299576 
z"/>
<path fill="#FD9CAF" opacity="1.000000" stroke="none" 
	d="
M152.604156,67.002640 
	C147.051498,72.876457 140.951538,78.527519 135.055527,84.383926 
	C118.496819,100.831467 105.521347,119.947586 94.389542,140.312531 
	C72.056969,181.168594 58.907276,225.134186 50.783775,270.773956 
	C49.069031,280.407806 47.034828,289.982910 46.033379,300.202026 
	C44.210079,301.431641 42.407944,302.262390 40.548164,302.933380 
	C36.730175,304.310822 34.226421,306.770691 34.612473,311.018066 
	C35.018219,315.482178 37.888393,317.656372 42.646706,318.023651 
	C44.177803,319.027252 44.455116,320.351624 44.317539,321.679901 
	C43.329819,331.216064 42.735168,340.802032 40.669418,350.660950 
	C39.727261,354.956116 39.545650,358.781525 40.248085,362.723694 
	C40.750561,365.543671 41.442261,368.568634 39.244431,371.634918 
	C35.821751,372.471802 32.663063,372.783081 29.586456,373.464813 
	C25.298056,374.415009 22.894516,377.192719 23.218851,381.677612 
	C23.518816,385.825500 27.081848,388.427277 31.752327,388.127167 
	C33.904785,387.988831 36.038708,387.562134 38.583122,387.336060 
	C38.640049,410.209259 41.480629,432.429901 50.657024,453.575714 
	C57.527615,469.408051 68.460670,481.428680 83.724625,489.991943 
	C63.476894,487.824036 46.231327,479.701874 34.127625,462.471619 
	C31.562426,458.819916 28.827549,455.971191 23.843765,457.727509 
	C22.157969,458.321625 21.514235,457.243988 20.938837,455.903687 
	C19.732529,453.093719 18.327923,450.365723 17.199209,447.526764 
	C16.517756,445.812744 17.070389,444.556152 18.862648,443.478699 
	C21.944157,441.626129 22.770302,438.487183 21.922499,435.170715 
	C13.909110,403.823761 15.018122,372.070038 18.193775,340.346619 
	C22.257244,299.754242 28.813379,259.546143 40.097870,220.261200 
	C51.281754,181.326492 67.199745,144.566193 91.404434,111.765190 
	C101.429756,98.179367 112.791115,85.830750 125.769295,74.989944 
	C133.445190,68.578194 142.158279,65.685074 152.604156,67.002640 
z"/>
<path fill="#FD9CAF" opacity="1.000000" stroke="none" 
	d="
M317.975708,283.285461 
	C316.411987,295.517029 314.355804,307.433380 313.601776,319.521973 
	C313.199768,325.966431 312.185791,332.393311 312.123840,338.834625 
	C311.922699,359.736694 311.290619,380.675171 312.227905,401.536560 
	C313.217773,423.568268 315.567230,445.608856 325.927979,465.733856 
	C331.466309,476.491699 339.421173,485.010834 350.716705,490.560699 
	C318.527588,488.280060 300.988403,471.833862 294.045624,437.510864 
	C289.868591,416.860931 288.936096,395.953583 288.995544,374.963654 
	C289.092712,340.655762 290.567322,306.461578 296.886841,272.623718 
	C297.597229,268.819855 298.522095,268.657166 301.359344,270.862396 
	C306.737732,275.042664 312.307373,278.976868 317.975708,283.285461 
z"/>
<path fill="#FE9CAF" opacity="1.000000" stroke="none" 
	d="
M370.513092,67.009964 
	C357.549286,77.998123 352.609009,91.774529 354.516418,109.054710 
	C355.895508,121.548248 355.334106,134.264267 354.262024,146.923767 
	C353.107300,160.559036 350.852234,173.898239 347.198212,187.052139 
	C343.931854,198.810532 339.607544,210.108917 333.034454,220.863831 
	C326.068512,215.242233 320.640320,208.054825 314.734192,201.297867 
	C313.515350,199.903427 313.563660,198.779205 314.390656,197.315079 
	C330.995148,167.917084 334.777039,136.221527 331.806335,103.127899 
	C330.283447,86.163155 341.230682,71.726128 357.664124,67.530365 
	C361.744202,66.488647 365.894226,66.364845 370.513092,67.009964 
z"/>
<path fill="#FDDBE1" opacity="1.000000" stroke="none" 
	d="
M40.253670,351.262085 
	C39.895714,340.208008 42.016151,329.627838 43.015549,318.516724 
	C51.265511,314.369202 59.824986,311.944519 68.920677,311.669800 
	C70.395309,311.625275 71.826546,311.311737 73.122559,312.536377 
	C77.344513,316.525665 81.599892,320.483398 85.954643,324.326111 
	C87.448174,325.644043 87.086937,326.770264 86.397125,328.243195 
	C79.559265,342.843536 74.439034,358.042755 70.565048,373.681580 
	C70.337410,374.600525 70.502724,376.535431 68.829926,376.125854 
	C66.082092,375.453125 62.734848,375.968079 61.079956,372.660736 
	C58.239246,366.983521 56.124527,361.067047 55.345249,354.759277 
	C54.892044,351.090851 53.301956,348.405365 49.712242,347.354919 
	C46.280590,346.350739 43.565807,347.756958 41.216965,350.753967 
	C40.802780,351.166260 40.647713,351.346680 40.253670,351.262085 
z"/>
<path fill="#F6D2D9" opacity="1.000000" stroke="none" 
	d="
M39.849815,351.380798 
	C40.014690,350.997070 40.486267,350.991516 40.722057,350.988678 
	C38.794060,357.059906 41.360390,362.654327 43.194050,368.114563 
	C44.601864,372.306732 42.968155,372.515778 39.374447,372.074219 
	C39.264576,365.254364 38.274090,358.465454 39.849815,351.380798 
z"/>
<path fill="#FD9CAF" opacity="1.000000" stroke="none" 
	d="
M83.970352,490.500427 
	C84.350700,490.308868 84.935188,490.337769 85.726578,490.591431 
	C85.347145,490.784424 84.760818,490.752655 83.970352,490.500427 
z"/>
</svg>